<svg id="Layer_1" data-name="Layer 1" xmlns="http://www.w3.org/2000/svg" viewBox="0 0 205 372.6"><defs><style>.cls-1{stroke:#000;stroke-miterlimit:10;}</style></defs><path d="M422.3,233.08c-.12-1.91-.15-3.83-.15-5.74v-155q0-8.4-5.12-13.53T403.5,53.7a18.44,18.44,0,0,0-13.35,5.12q-5.31,5.13-5.31,13.53v89.26A112.67,112.67,0,0,0,320,137.37c-58.5-3-102.5,45.66-102.5,102s45.9,101,102.5,102c58.5,1,102.5-45.67,102.5-102Q422.5,236.19,422.3,233.08Zm-36,6.07a73.27,73.27,0,0,1-8.42,35.12,63.49,63.49,0,0,1-23,24.69q-14.64,9-33.29,9a62.75,62.75,0,0,1-33.1-9,64.32,64.32,0,0,1-23.41-24.69,72,72,0,0,1-8.59-35.12q0-19.76,8.59-35.11a65,65,0,0,1,23.41-24.33,62.75,62.75,0,0,1,33.1-9q18.66,0,33.29,9a64.1,64.1,0,0,1,23,24.33Q386.31,219.4,386.31,239.15Z" transform="translate(-217.5 -53.7)"/><path d="M267.33,425.1l-.09-5.52q-4.14,6.72-12.6,6.72a18.6,18.6,0,0,1-7.92-1.66,17.21,17.21,0,0,1-6.16-4.78,23,23,0,0,1-4.05-7.64A32.81,32.81,0,0,1,235,402a33.68,33.68,0,0,1,1.24-9.43,22.16,22.16,0,0,1,3.64-7.4,16.28,16.28,0,0,1,5.84-4.83,17.47,17.47,0,0,1,7.86-1.71,15.77,15.77,0,0,1,13.44,7.09V363.28h11.77V425.1Zm-9.93-8.55a8.93,8.93,0,0,0,7.22-3.59,14.48,14.48,0,0,0,2.9-9.38q0-14.73-10-14.72-10.31,0-10.31,14a16,16,0,0,0,2.86,9.89A8.78,8.78,0,0,0,257.4,416.55Z" transform="translate(-217.5 -53.7)"/><path d="M285.82,425.1V379.84h11.23v5.43a14.8,14.8,0,0,1,3.08-3.59,13.31,13.31,0,0,1,3.31-2,12.67,12.67,0,0,1,3.45-.87,35,35,0,0,1,3.59-.19H312v12.24a20.54,20.54,0,0,0-3.31-.28q-11,0-11,10.95V425.1Z" transform="translate(-217.5 -53.7)"/><rect x="99.88" y="309.58" width="11.96" height="11.13" rx="5.57"/><rect x="99.88" y="326.14" width="11.96" height="45.26"/><path d="M341.21,425.1V388.3h-2.49a4.23,4.23,0,0,1-4.23-4.23h0a4.23,4.23,0,0,1,4.23-4.23h2.49q0-16.56,19.22-16.56v9.66a17.77,17.77,0,0,0-3.72.32,4.62,4.62,0,0,0-2.26,1.15,4.55,4.55,0,0,0-1.15,2.16,14.45,14.45,0,0,0-.32,3.27h11.73v8.46H353v36.8Z" transform="translate(-217.5 -53.7)"/><path d="M391.07,395.3H402.2v12.88a22,22,0,0,1-1.06,6.85,16,16,0,0,1-3.31,5.8,15.84,15.84,0,0,1-5.7,4,21,21,0,0,1-8.24,1.47,21.8,21.8,0,0,1-8.46-1.47,15.94,15.94,0,0,1-5.75-4,15.16,15.16,0,0,1-3.27-5.79,24,24,0,0,1-1-7V363.6h11.78v16.24H398a4.23,4.23,0,0,1,4.23,4.23h0A4.23,4.23,0,0,1,398,388.3H377.18v18.59a11.68,11.68,0,0,0,1.61,6.67q1.6,2.34,5.29,2.34a6.14,6.14,0,0,0,5.29-2.3,10.85,10.85,0,0,0,1.7-6.53Z" transform="translate(-217.5 -53.7)"/><circle class="cls-1" cx="103.64" cy="177.92" r="9.39"/><rect x="328.26" y="201.27" width="6.76" height="38.77" rx="3.32" transform="translate(17.5 -219.48) rotate(42.32)"/><rect x="99.73" y="175.9" width="6.77" height="56.03" rx="3.38"/></svg>