<svg id="Layer_1" data-name="Layer 1" xmlns="http://www.w3.org/2000/svg" viewBox="0 0 205 372.6"><defs><style>.cls-1{stroke:#000;stroke-miterlimit:10;}</style></defs><path d="M422,235c-.14-3-.24-5.92-.24-8.88V72.67q0-8.42-5.12-13.53T403.07,54a18.41,18.41,0,0,0-13.35,5.13q-5.31,5.11-5.31,13.53v4.82a60.43,60.43,0,0,1-64.1,60.23l-.74,0c-58.5-3-102.5,45.67-102.5,102s45.9,101,102.5,102c58.5,1,102.5-45.67,102.5-102C422.07,238.1,422,236.52,422,235Zm-36.08,4.51a73.23,73.23,0,0,1-8.42,35.11,63.35,63.35,0,0,1-23,24.69q-14.64,9-33.29,9a62.66,62.66,0,0,1-33.1-9,64.18,64.18,0,0,1-23.41-24.69,72,72,0,0,1-8.6-35.11q0-19.75,8.6-35.12A64.94,64.94,0,0,1,288,180a62.67,62.67,0,0,1,33.1-9q18.66,0,33.29,9a64.07,64.07,0,0,1,23,24.32Q385.88,219.71,385.88,239.47Z" transform="translate(-217.07 -54.01)"/><path d="M266.9,425.42l-.09-5.52q-4.14,6.72-12.61,6.72a18.71,18.71,0,0,1-7.91-1.66,17.35,17.35,0,0,1-6.16-4.79,23.09,23.09,0,0,1-4-7.63,32.9,32.9,0,0,1-1.47-10.21,33.63,33.63,0,0,1,1.24-9.43,22.22,22.22,0,0,1,3.64-7.41,16.49,16.49,0,0,1,5.84-4.83,17.6,17.6,0,0,1,7.86-1.7A15.73,15.73,0,0,1,266.62,386V363.59H278.4v61.83ZM257,416.86a8.94,8.94,0,0,0,7.23-3.58,14.52,14.52,0,0,0,2.89-9.39q0-14.72-10-14.72-10.31,0-10.31,14A16.08,16.08,0,0,0,249.6,413,8.79,8.79,0,0,0,257,416.86Z" transform="translate(-217.07 -54.01)"/><path d="M285.39,425.42V380.16h11.23v5.42A14.34,14.34,0,0,1,299.7,382a13.14,13.14,0,0,1,3.31-2,12.88,12.88,0,0,1,3.45-.88,34.93,34.93,0,0,1,3.59-.18h1.56V391.2a19.46,19.46,0,0,0-3.31-.28q-10.95,0-10.95,10.95v23.55Z" transform="translate(-217.07 -54.01)"/><rect x="99.88" y="309.58" width="11.96" height="11.13" rx="5.57"/><rect x="99.88" y="326.14" width="11.96" height="45.26"/><path d="M340.78,425.42v-36.8h-2.49a4.23,4.23,0,0,1-4.23-4.23h0a4.23,4.23,0,0,1,4.23-4.23h2.49q0-16.56,19.22-16.57v9.66a17,17,0,0,0-3.72.33,4.38,4.38,0,0,0-2.26,1.15,4.5,4.5,0,0,0-1.15,2.16,14.45,14.45,0,0,0-.32,3.27h11.73v8.46H352.55v36.8Z" transform="translate(-217.07 -54.01)"/><path d="M390.64,395.61h11.13v12.88a21.92,21.92,0,0,1-1.06,6.85,16,16,0,0,1-3.31,5.8,15.72,15.72,0,0,1-5.7,4,21,21,0,0,1-8.24,1.48,21.79,21.79,0,0,1-8.46-1.48,16,16,0,0,1-5.75-3.95,15.07,15.07,0,0,1-3.27-5.8,24,24,0,0,1-1-7V363.92h11.78v16.24h20.79a4.23,4.23,0,0,1,4.23,4.23h0a4.23,4.23,0,0,1-4.23,4.23H376.75V407.2a11.64,11.64,0,0,0,1.61,6.67q1.61,2.36,5.29,2.35a6.16,6.16,0,0,0,5.29-2.3,10.85,10.85,0,0,0,1.7-6.53Z" transform="translate(-217.07 -54.01)"/><circle class="cls-1" cx="103.64" cy="177.92" r="9.39"/><rect x="327.83" y="201.59" width="6.76" height="38.77" rx="3.32" transform="translate(18.03 -219.43) rotate(42.32)"/><rect x="99.73" y="175.9" width="6.77" height="56.03" rx="3.38"/></svg>